# xmcd CD database file
#
# Track frame offsets:
#	150
#	14616
#	34517
#	50711
#	74695
#	89968
#	107338
#	122962
#	141830
#	161255
#	174479
#	194842
#	214408
#	227785
#	245141
#	254764
#	266630
#
# Disc length: 3791 seconds
#
# Revision: 0
# Processed by: cddbd v1.5.2PL0 Copyright (c) Steve Scherf et al.
# Submitted via: CDex 1.50
#
DISCID=120ecd11
DTITLE=Enigma - Seven Lives Many Faces
DYEAR=2008
DGENRE=New Age
TTITLE0=Encounters
TTITLE1=Seven Lives
TTITLE2=Touchness
TTITLE3=The Same Parents
TTITLE4=Fata Morgana
TTITLE5=Hell's Heaven
TTITLE6=La Puerta Del Cielo
TTITLE7=Distorted Love
TTITLE8=Je T'aime Till My Dying Day
TTITLE9=Deja Vu
TTITLE10=Between Generations
TTITLE11=The Language Of Sound
TTITLE12=Superficial  (bonus track)
TTITLE13=We Are Nature (bonus track)
TTITLE14=Downtown Silence (bonus track)
TTITLE15=Sunrise (bonus track)
TTITLE16=The Language Of Sound (Slow Edit)(bonus track)
EXTD=YEAR: 2008
EXTT0=
EXTT1=
EXTT2=
EXTT3=
EXTT4=
EXTT5=
EXTT6=
EXTT7=
EXTT8=
EXTT9=
EXTT10=
EXTT11=
EXTT12=
EXTT13=
EXTT14=
EXTT15=
EXTT16=
PLAYORDER=
